<?xml version="1.0" encoding="UTF-8"?>
<svg id="Layer_1" xmlns="http://www.w3.org/2000/svg" version="1.1" viewBox="0 0 435.3 60.2">
  <!-- Generator: Adobe Illustrator 29.0.1, SVG Export Plug-In . SVG Version: 2.1.0 Build 192)  -->
  <defs>
    <style>
      .st0 {
        fill: #010101;
      }
    </style>
  </defs>
  <g>
    <path class="st0" d="M56.5,48.5c-4,0-7.3-.6-9.8-1.9s-4.5-2.9-5.7-5.1c-1.2-2.1-1.9-4.6-1.9-7.3h2.1c0,2.5.6,4.6,1.7,6.5,1.1,1.9,2.8,3.3,5.1,4.2,2.2,1,5.1,1.5,8.6,1.5s5.9-.4,8.2-1.3c2.2-.9,3.9-2.2,5-3.9,1.2-1.7,1.7-3.6,1.7-5.8s-1-5.3-3-7.3-5-3.2-9.1-3.6l-5.7-.5c-3.7-.3-6.6-1.5-8.7-3.6-2.1-2.1-3.2-4.7-3.2-8.1s.5-4.4,1.5-6.2,2.6-3.4,4.8-4.5c2.2-1.2,4.9-1.7,8.3-1.7s6.4.6,8.6,1.9,3.9,3,5,5,1.7,4.3,1.7,6.7h-2c0-2.1-.4-4-1.3-5.8-.9-1.8-2.3-3.2-4.3-4.3-2-1.1-4.5-1.6-7.6-1.6s-5.4.4-7.3,1.4-3.2,2.2-4.1,3.9c-.8,1.6-1.3,3.4-1.3,5.3,0,2.9.9,5.2,2.7,6.8,1.8,1.7,4.3,2.6,7.6,2.9l5.7.5c3,.3,5.6,1,7.6,2.2s3.6,2.7,4.6,4.5c1,1.8,1.5,3.8,1.5,6s-.6,4.6-1.9,6.6-3.1,3.5-5.6,4.6c-2.5,1.1-5.6,1.7-9.3,1.7h0Z"/>
    <path class="st0" d="M82,16.4v-1.9h7.7v1.9h-7.7ZM87.3,6.9c-.7,0-1.2-.2-1.6-.6s-.6-.9-.6-1.5.2-1.1.6-1.5.9-.6,1.6-.6,1.3.2,1.6.6c.4.4.5.9.5,1.5s-.2,1.2-.5,1.5c-.4.4-.9.6-1.6.6ZM87.7,47.4V14.6h2.1v32.9h-2.1Z"/>
    <path class="st0" d="M103.5,47.4V14.5h1.7v13.2h-.8c0-2.6.4-5,1.3-7.1s2.2-3.8,3.9-5c1.7-1.2,3.9-1.9,6.5-1.9h.1c2.6,0,4.7.6,6.5,1.8s3,2.8,3.8,4.9,1.2,4.6,1.2,7.3h-1c0-2.6.4-5,1.3-7.1s2.1-3.8,3.9-5c1.7-1.2,4-1.9,6.6-1.9h.1c2.6,0,4.7.6,6.5,1.8,1.7,1.2,3,2.8,3.9,4.9s1.3,4.6,1.3,7.3v19.7h-2.1v-20.2c0-3.3-.8-6.2-2.4-8.3s-4-3.3-7.4-3.3-5.9,1.1-7.8,3.3c-1.9,2.2-2.8,5.1-2.8,8.5v20h-2.1v-20.2c0-3.3-.8-6.2-2.4-8.3s-4-3.3-7.4-3.3-5.9,1.1-7.8,3.3c-1.9,2.2-2.8,5.1-2.8,8.5v20h-2.1,0Z"/>
    <path class="st0" d="M163.5,60.1V14.6h1.7v13.9l-1,.7c0-2.9.6-5.5,1.9-7.8s3-4.2,5.3-5.6c2.3-1.4,5-2.1,8.2-2.1s4.7.5,6.7,1.5,3.7,2.2,5,3.9c1.3,1.7,2.4,3.5,3.1,5.5.7,2.1,1,4.2,1,6.4v.4c0,2.1-.3,4.1-1,6.2s-1.7,3.9-3,5.6c-1.3,1.7-3,3-4.9,4s-4.3,1.5-6.9,1.5-6-.8-8.2-2.2-4-3.4-5.2-5.8c-1.2-2.4-1.8-4.9-1.8-7.6l1.3,4.1v23.1h-2.1,0ZM179.3,46.5c3,0,5.6-.8,7.7-2.2s3.7-3.4,4.7-5.8c1-2.4,1.6-4.9,1.6-7.5s-.6-5.3-1.7-7.7-2.7-4.2-4.7-5.7-4.6-2.1-7.6-2.1-5.2.6-7.3,1.9c-2.1,1.2-3.7,2.9-4.9,4.9-1.2,2.1-1.8,4.4-1.8,7.1v3.4c0,2.4.6,4.7,1.7,6.8,1.2,2.1,2.8,3.8,4.8,5.1s4.6,1.9,7.4,1.9h0Z"/>
    <path class="st0" d="M201,3.2v-1.9h7.2v1.9h-7.2ZM206.2,47.4V1.3h2.1v46.1h-2.1Z"/>
    <path class="st0" d="M235,48.5c-2.8,0-5.1-.5-7.1-1.5-2.1-1-3.7-2.3-5-4-1.3-1.7-2.3-3.5-3-5.6-.6-2.1-1-4.2-1-6.4v-.4c0-2.1.3-4.2,1-6.2s1.7-3.9,3-5.5c1.3-1.7,3-3,4.9-3.9s4.2-1.4,6.8-1.4,5.9.7,8.2,2.2c2.2,1.5,4,3.4,5.2,5.7s1.8,4.8,1.8,7.4v2.1h-29.8v-1.9h28.7l-.8.6c0-2.6-.5-5.1-1.6-7.2-1-2.1-2.6-3.9-4.6-5.1s-4.4-1.9-7.1-1.9-5.6.7-7.6,2.1c-2.1,1.4-3.6,3.3-4.6,5.6s-1.5,4.8-1.5,7.6.5,5.4,1.5,7.8c1,2.4,2.6,4.3,4.7,5.8,2.1,1.5,4.7,2.2,8,2.2s6.2-.8,8.3-2.4,3.4-3.6,3.9-5.9h2.1c-.4,2-1.3,3.7-2.5,5.3-1.3,1.5-2.9,2.8-4.8,3.7-2,.9-4.2,1.3-6.9,1.3h0Z"/>
    <path class="st0" d="M276.7,47.6V1.2h2.1v46.4h-2.1ZM277.7,24.5v-1.5h13c3.5,0,6.1-1,7.8-2.8s2.5-4.2,2.5-7.2-.8-5.3-2.5-7.2-4.2-2.8-7.8-2.8h-13v-1.9h12.6c4.2,0,7.4,1.1,9.5,3.3,2.1,2.2,3.1,4.9,3.1,8.3v.5c0,2.3-.5,4.3-1.5,6-1,1.7-2.4,3-4.3,3.9-1.9.9-4.1,1.3-6.8,1.3h-12.6,0ZM277.7,47.6v-1.9h14.7c3.3,0,5.8-1,7.6-2.9s2.8-4.4,2.8-7.4-.9-5.5-2.7-7.4c-1.8-2-4.4-3-7.7-3h-14.7v-1.5h14.3c2.5,0,4.7.4,6.7,1.4,1.9.9,3.4,2.2,4.5,4s1.7,3.9,1.7,6.2v.5c0,2.1-.4,4.1-1.4,6-1,1.9-2.4,3.3-4.2,4.4-1.9,1.1-4.3,1.7-7.1,1.7h-14.4Z"/>
    <path class="st0" d="M324.1,46.5l-12.1-32h2.1l12.1,32h-2ZM312.6,60.2v-1.9h3.2c1.5,0,2.8-.2,4-.5,1.2-.4,2.2-1,3.1-2,.9-1,1.7-2.4,2.2-4.3l12.5-36.9h2l-12.8,37.7c-.6,2-1.5,3.5-2.6,4.7-1.1,1.2-2.3,2-3.8,2.4-1.4.5-3,.7-4.7.7h-3.1.1ZM324.7,46.5v-1.9h3.3v1.9h-3.3Z"/>
    <path class="st0" d="M343.9,16.3v-1.8h21.5v1.8h-21.5ZM359.8,47.7c-1.9,0-3.5-.3-4.9-.8-1.4-.6-2.5-1.5-3.3-2.9s-1.2-3.1-1.2-5.4V3.5h2.1v35.7c0,2.1.6,3.8,1.8,4.9,1.2,1.2,2.8,1.7,4.9,1.7h6.2v1.9h-5.7Z"/>
    <path class="st0" d="M388.5,48.5c-2.8,0-5.1-.5-7.1-1.5s-3.7-2.3-5-4c-1.3-1.7-2.3-3.5-3-5.6-.6-2.1-1-4.2-1-6.4v-.4c0-2.1.3-4.2,1-6.2s1.7-3.9,3-5.5c1.3-1.7,3-3,4.9-3.9,2-1,4.2-1.4,6.8-1.4s5.9.7,8.2,2.2c2.2,1.5,4,3.4,5.2,5.7,1.2,2.3,1.8,4.8,1.8,7.4v2.1h-29.8v-1.9h28.7l-.8.6c0-2.6-.5-5.1-1.6-7.2-1-2.1-2.6-3.9-4.6-5.1s-4.4-1.9-7.1-1.9-5.6.7-7.6,2.1-3.6,3.3-4.6,5.6-1.5,4.8-1.5,7.6.5,5.4,1.5,7.8,2.6,4.3,4.7,5.8c2.1,1.5,4.7,2.2,8,2.2s6.2-.8,8.3-2.4,3.4-3.6,3.9-5.9h2.1c-.4,2-1.3,3.7-2.5,5.3-1.3,1.5-2.9,2.8-4.8,3.7s-4.2,1.3-6.9,1.3h0Z"/>
    <path class="st0" d="M422.8,48.3c-4,0-7.1-1-9.2-2.8s-3.1-4.2-3.1-7.1h2c0,2.2.8,4,2.4,5.6s4.2,2.3,7.9,2.3,6.2-.8,7.9-2.4,2.4-3.5,2.4-5.6-.8-3.8-2.4-4.9-3.6-1.9-6-2.1l-4-.4c-2.8-.3-4.9-1.2-6.4-2.6s-2.3-3.3-2.3-5.7.4-3.1,1.3-4.5,2.1-2.5,3.7-3.3,3.6-1.3,6-1.3,5.9.8,7.9,2.5c2.1,1.7,3,3.9,3,6.5h-2c0-2.1-.7-3.8-2.2-5.1s-3.8-2.1-6.6-2.1-5.3.8-6.7,2.2c-1.4,1.5-2.2,3.2-2.2,5.1s.6,3,1.8,4.2c1.2,1.2,2.9,1.9,5.2,2.2l4,.4c2.9.3,5.3,1.2,7.3,2.6s3,3.6,3,6.4-.4,3.4-1.4,4.9-2.3,2.6-4.1,3.5c-1.8.9-4,1.3-6.7,1.3h-.3Z"/>
  </g>
  <path class="st0" d="M25,25.7h-4.2v4.2h-4.2v4.2h-4.2v4.2h-4.2v4.2h-4.2v4.2H0v-8.3h4.2v-4.2h4.2v-4.2h4.2v-4.2h4.2v-4.2h-4.2v-4.2h-4.2v-4.2h-4.2v-4.2H0V.8h4.2v4.2h4.2v4.2h4.2v4.2h4.2v4.2h4.2v4.2h4.2v4.2h0Z"/>
</svg>